<svg id="Group_963" data-name="Group 963" xmlns="http://www.w3.org/2000/svg" width="778.243" height="825.844" viewBox="0 0 778.243 825.844">
  <rect id="Rectangle_61" data-name="Rectangle 61" width="15" height="155" rx="7.5" transform="translate(214.602 620.151) rotate(45)" fill="#edf5e1"/>
  <rect id="Rectangle_58" data-name="Rectangle 58" width="15" height="134" rx="7.5" transform="translate(675.752 74) rotate(45)" fill="#edf9e0"/>
  <rect id="Rectangle_68" data-name="Rectangle 68" width="16" height="113" rx="8" transform="translate(720.93 441.604) rotate(45)" fill="#5ffdf2"/>
  <path id="Union_16" data-name="Union 16" d="M202.2,687.709a7.482,7.482,0,0,1,0-10.591l47.351-47.282A299.847,299.847,0,0,1,85.313,304.754L12.8,377.159A7.495,7.495,0,0,1,2.2,366.567l89.7-89.574a297.64,297.64,0,0,1,39.536-84.384A299.607,299.607,0,0,1,380.2,60.533a296,296,0,0,1,106.846,19.7q3.915,1.508,7.795,3.133c.151-.172.31-.341.474-.5l79.9-79.788A10.492,10.492,0,0,1,590.071,17.9L515.1,92.763q9.82,5.015,19.252,10.753a303.752,303.752,0,0,1,42.261,31.055,32.166,32.166,0,0,1,6.565,11.045,24.881,24.881,0,0,1-.678,17.752A34.284,34.284,0,0,1,574.378,175a53.432,53.432,0,0,1-10.595,7.807,66.7,66.7,0,0,1-13.126,5.762c-.14.045-14.2,4.591-32.613,10.023-9.019,2.66-21.37,6.3-32.71,11.293-12.7,5.585-22.285,11.98-29.316,19.549-6.809,7.33-11.356,15.181-13.515,23.332a44.411,44.411,0,0,0-.627,20,51.067,51.067,0,0,0,4.97,13.97,38.221,38.221,0,0,0,3.277,5.254,28.223,28.223,0,0,0,6.435,6.462,32.421,32.421,0,0,0,8.249,4.442,34.381,34.381,0,0,0,11.787,2.02c7.046,0,14.675-1.965,22.676-5.839,9.514-4.608,19.689-11.988,30.244-21.937a129.617,129.617,0,0,1,15.733-12.776,91.279,91.279,0,0,1,14.625-8.2,63.288,63.288,0,0,1,25.456-5.659,54.278,54.278,0,0,1,15.8,2.345A56.107,56.107,0,0,1,612.956,258a48,48,0,0,1,9.991,7.5,85.243,85.243,0,0,1,12.869,12.675,74.047,74.047,0,0,1,9.338,14.2,50.782,50.782,0,0,1,5.274,17.98,44.213,44.213,0,0,1-2.185,17.936,57.446,57.446,0,0,1-7.074,14.1,65.135,65.135,0,0,1-11,12.533,256.948,256.948,0,0,1-23.591,12.615c-2.443,1.146-4.974,2.219-7.655,3.356-8.816,3.74-17.931,7.605-23.125,13.919a24.708,24.708,0,0,0-5.552,14.832,41.394,41.394,0,0,0,2.338,14.942,68.953,68.953,0,0,0,7.978,16.167c.012.013.314.337.857.932l44.37-45.879a11.492,11.492,0,0,1,16.545,15.954l-45.82,47.379c5.257,6.409,11.4,14.288,16.514,21.92a32.972,32.972,0,0,1,5.473,13.26,24.087,24.087,0,0,1-.608,10.293,22.954,22.954,0,0,1-4.865,9.032,15.9,15.9,0,0,1-4.09,3.054,23.636,23.636,0,0,1-5.27,2.1,29.207,29.207,0,0,1-7.561.955c-7.907,0-16.829-2.79-26.517-8.3-8.356-4.747-16.7-7.155-24.818-7.155a39.914,39.914,0,0,0-18.786,4.671,32.29,32.29,0,0,0-6.787,4.671,25.365,25.365,0,0,0-4.052,10.641,22.652,22.652,0,0,0,1.108,10.8,30.377,30.377,0,0,0,8.685,12.238c2.714,2.432,6.516,4.171,11.623,5.315a103.793,103.793,0,0,0,13.588,1.781,77.276,77.276,0,0,1,9.715,1.208,22.067,22.067,0,0,1,9.681,4.651,12.033,12.033,0,0,1,2.638,3.04,20.321,20.321,0,0,1,2.8,7.961,26.6,26.6,0,0,1-.247,9.063,36.027,36.027,0,0,1-4.671,11.661c-10.2,16.882-19.924,22.822-34.719,30.6-.609.321-1.145.612-1.592.866a695.441,695.441,0,0,1-70.773,29.057c-33.287,11.366-61.137,17.128-82.776,17.128a302.584,302.584,0,0,1-60.46-6.087,298.773,298.773,0,0,1-55.585-17.149L212.8,687.709a7.508,7.508,0,0,1-10.607,0Z" transform="translate(45.106 57.35)" fill="#41a2a0"/>
  <rect id="Rectangle_54" data-name="Rectangle 54" width="21" height="150" rx="10.5" transform="translate(463.808 86.424) rotate(43)" fill="#5ffdf2"/>
  <rect id="Rectangle_65" data-name="Rectangle 65" width="15" height="155" rx="7.5" transform="translate(524.602 630.151) rotate(45)" fill="#edf6e1"/>
  <rect id="Rectangle_66" data-name="Rectangle 66" width="15" height="50" rx="7.5" transform="translate(395.355 759.397) rotate(45)" fill="#edf6e1"/>
  <rect id="Rectangle_62" data-name="Rectangle 62" width="20" height="163" rx="10" transform="translate(273.894 639.444) rotate(45)" fill="#5ffdf2"/>
  <rect id="Rectangle_63" data-name="Rectangle 63" width="20" height="62" rx="10" transform="translate(144.477 767.861) rotate(45)" fill="#5ffdf2"/>
  <rect id="Rectangle_60" data-name="Rectangle 60" width="15" height="35" rx="7.5" transform="translate(24.749 444.441) rotate(45)" fill="#00366d"/>
  <rect id="Rectangle_57" data-name="Rectangle 57" width="21" height="50" rx="10.5" transform="translate(683.752) rotate(45)" fill="#00366d"/>
  <rect id="Rectangle_55" data-name="Rectangle 55" width="21" height="35" rx="10.5" transform="translate(501.808 47.424) rotate(43)" fill="#5ffdf2"/>
  <circle id="Ellipse_1432" data-name="Ellipse 1432" cx="21" cy="21" r="21" transform="translate(640.309 585.223)" fill="#edf7e1"/>
  <circle id="Ellipse_1433" data-name="Ellipse 1433" cx="29.5" cy="29.5" r="29.5" transform="translate(130.309 150.773)" fill="#edf9e0"/>
  <circle id="Ellipse_1434" data-name="Ellipse 1434" cx="45.5" cy="45.5" r="45.5" transform="translate(648.309 202.694)" fill="#edf8e1"/>
  <rect id="Rectangle_69" data-name="Rectangle 69" width="16" height="40" rx="8" transform="translate(766.93 395.702) rotate(45)" fill="#5ffdf2"/>
  <rect id="Rectangle_70" data-name="Rectangle 70" width="20" height="137" rx="10" transform="translate(183.928 475.544) rotate(45)" fill="#5ffdf2"/>
</svg>
