<svg xmlns="http://www.w3.org/2000/svg" width="1000" height="1000" viewBox="0 0 1000 1000">
  <g id="Group_8" data-name="Group 8" transform="translate(2695 -2532)">
    <g id="Path_22" data-name="Path 22" transform="translate(-2695 2532)">
      <path d="M 500 985 C 232.5701446533203 985 15 767.4298706054688 15 500 C 15 232.5701446533203 232.5701446533203 15 500 15 C 767.4298706054688 15 985 232.5701446533203 985 500 C 985 767.4298706054688 767.4298706054688 985 500 985 Z" stroke="none"/>
      <path d="M 500 30 C 240.841064453125 30 30 240.841064453125 30 500 C 30 759.158935546875 240.841064453125 970 500 970 C 759.158935546875 970 970 759.158935546875 970 500 C 970 240.841064453125 759.158935546875 30 500 30 M 500 0 C 776.142333984375 0 1000 223.857666015625 1000 500 C 1000 776.142333984375 776.142333984375 1000 500 1000 C 223.857666015625 1000 0 776.142333984375 0 500 C 0 223.857666015625 223.857666015625 0 500 0 Z" stroke="none"/>
    </g>
    <path id="Subtraction_6" data-name="Subtraction 6" d="M201.3,562.684h0a62.417,62.417,0,0,1-12.148-1.369c.005,0,.153.079.427.218a287.313,287.313,0,0,1-76.288-42.014A289.892,289.892,0,0,1,176.2,22.75,286.327,286.327,0,0,1,230.358,5.882a290.328,290.328,0,0,1,116.285,0A286.4,286.4,0,0,1,449.8,49.442,289.992,289.992,0,0,1,463.986,519.3a287.362,287.362,0,0,1-76.115,42.067,52.621,52.621,0,0,1-10.567,1.214,21.948,21.948,0,0,1-6.693-.88,13.478,13.478,0,0,1-4.286-2.349,16.634,16.634,0,0,1-2.892-3.036,17.427,17.427,0,0,1-2.149-3.746c.01-.2,1-20.285,1.491-42.771.289-13.26.351-24.8.186-34.308-.206-11.882-.771-20.594-1.677-25.9a61.282,61.282,0,0,0-4.55-15,54.232,54.232,0,0,0-6.133-10.339,39.444,39.444,0,0,0-7.7-7.907h.126a126.182,126.182,0,0,0,16.486-1.356c5.336-.748,10.707-1.772,15.962-3.044a158.011,158.011,0,0,0,18.872-5.82,128.886,128.886,0,0,0,39.768-23.565,112.764,112.764,0,0,0,17.543-19.543A118.9,118.9,0,0,0,465.4,337.107a253.228,253.228,0,0,0,7.5-35.784,183.237,183.237,0,0,0,1.547-29.791c-.542-15.878-3.452-30.381-8.65-43.107a93.775,93.775,0,0,0-7.146-14.07,78.207,78.207,0,0,0-6.993-9.583,47.128,47.128,0,0,0-7.425-7.215,83.917,83.917,0,0,0,3.345-11.236,111.055,111.055,0,0,0,2.145-12.365,104.192,104.192,0,0,0,.651-15.37,95.283,95.283,0,0,0-1.819-15.417,107.2,107.2,0,0,0-3.288-12.469,85.584,85.584,0,0,0-4.558-11.387c-.023-.01-2.452-1.034-7.643-1.034a54.185,54.185,0,0,0-9.048.839,91.409,91.409,0,0,0-12.945,3.3,121.818,121.818,0,0,0-16.609,7.129c-4.991,2.529-10.408,5.55-16.1,8.979-9.763,5.881-16.914,10.9-16.985,10.95-.076-.024-8.022-2.554-20.218-5.035-7.186-1.462-14.438-2.626-21.555-3.462a223.144,223.144,0,0,0-25.88-1.573,264.682,264.682,0,0,0-27.418,1.573c-7.933.835-16.324,2-24.939,3.462-14.635,2.483-25.038,5.01-25.142,5.035-.044-.034-4.69-3.6-12.258-8.4a208.15,208.15,0,0,0-30.008-15.837,92.34,92.34,0,0,0-16.462-5.279,55.16,55.16,0,0,0-11.281-1.283,23.972,23.972,0,0,0-7.474.914,57.274,57.274,0,0,0-4.6,10.527A84.33,84.33,0,0,0,131,142.468a91.828,91.828,0,0,0-1.375,16.359,135.662,135.662,0,0,0,1.045,16.28,116.167,116.167,0,0,0,2.183,12.177,68.978,68.978,0,0,0,3.139,10.273,48.013,48.013,0,0,0-7.407,6.945,77.221,77.221,0,0,0-7.008,9.188,90.573,90.573,0,0,0-7.211,13.448c-5.274,12.146-8.312,25.949-9.03,41.025a166.79,166.79,0,0,0,1.181,28.252,228.823,228.823,0,0,0,6.979,33.862,104.269,104.269,0,0,0,11.385,27.761,100.226,100.226,0,0,0,16.788,21.045c11.076,10.615,24.955,19.248,41.251,25.659a168.7,168.7,0,0,0,20.2,6.472c5.6,1.421,11.342,2.589,17.068,3.473a138.48,138.48,0,0,0,16.214,1.663,49.015,49.015,0,0,0-4.62,4.5,49.689,49.689,0,0,0-8.041,11.691,60.81,60.81,0,0,0-4.5,14.681c-.815,4.282-1.08,7.458-1.082,7.489h0l0,0a61.374,61.374,0,0,1-8.642,3.25,78.01,78.01,0,0,1-9.528,2.237,71.477,71.477,0,0,1-11.859,1.017,58.259,58.259,0,0,1-27.348-6.528,60.179,60.179,0,0,1-13.757-10,79.1,79.1,0,0,1-12.671-16.125A74.563,74.563,0,0,0,123.2,414.106a49.09,49.09,0,0,0-11.032-8.319,40.921,40.921,0,0,0-10.123-3.875,44.661,44.661,0,0,0-8.415-1.125c-.619-.027-1.234-.041-1.826-.041a26.978,26.978,0,0,0-9.009,1.348,11.067,11.067,0,0,0-4.42,2.64,2.513,2.513,0,0,0-.835,1.551c.014.223.025.446.036.661.109,2.221.212,4.318,4.171,7.87a51.356,51.356,0,0,0,7.337,5.032c5.129,3.127,10.942,6.671,15.54,12.69,4.461,5.84,8.255,13.046,12.273,20.675a205.738,205.738,0,0,0,12.873,22.131,49.248,49.248,0,0,0,11.35,11.621,55.689,55.689,0,0,0,13.61,7.215c8.476,3.131,18.364,4.719,29.389,4.719a135.314,135.314,0,0,0,24.807-2.418c6.362-1.2,10.346-2.406,10.385-2.418v58.505a11.472,11.472,0,0,1-1.779,3.216,17.428,17.428,0,0,1-7.446,5.527A23.718,23.718,0,0,1,201.3,562.684Z" transform="translate(-2483 2751)" fill="#fff"/>
  </g>
</svg>
