<svg xmlns="http://www.w3.org/2000/svg" width="1000" height="1000" viewBox="0 0 1000 1000">
  <g id="Group_4" data-name="Group 4" transform="translate(1611 -1292)">
    <g id="Ellipse_1176" data-name="Ellipse 1176" transform="translate(-1611 1292)" fill="none" stroke="#000" stroke-width="30">
      <circle cx="500" cy="500" r="500" stroke="none"/>
      <circle cx="500" cy="500" r="485" fill="none"/>
    </g>
    <g id="Group_3" data-name="Group 3">
      <rect id="Rectangle_12" data-name="Rectangle 12" width="43" height="308" rx="21.5" transform="translate(-1273 1659)"/>
      <path id="Union_2" data-name="Union 2" d="M177,287.5V132.334l-.109-.005q.062-.939.109-1.885V105.778q-.088-1.506-.213-3c-.666-7.879-2.117-14.335-4.435-19.737a73.426,73.426,0,0,0-10.984-17.968A71.649,71.649,0,0,0,146.449,51.53a68.123,68.123,0,0,0-17.538-8.552A62.076,62.076,0,0,0,110.068,40a65.954,65.954,0,0,0-27.376,6.281A74.488,74.488,0,0,0,58.927,63.7a70.691,70.691,0,0,0-8.07,10.764,67.046,67.046,0,0,0-5.9,12.356A65.442,65.442,0,0,0,43,93.385V286.5a21.5,21.5,0,1,1-43,0V21.5a21.5,21.5,0,0,1,43,0v6.631A107.077,107.077,0,0,1,70.045,12.094a108.6,108.6,0,0,1,19.991-6,111.08,111.08,0,0,1,42.927,0,107.858,107.858,0,0,1,38.082,15.5,106.574,106.574,0,0,1,15.762,12.577,104.517,104.517,0,0,1,13.005,15.243,101.941,101.941,0,0,1,9.819,17.5,99.963,99.963,0,0,1,6.206,19.334q.938,4.43,1.471,8.957a20.531,20.531,0,0,1,.692,5.3v6.083c0,.139,0,.278,0,.416q0,.136,0,.271V287.5a20.5,20.5,0,1,1-41,0Z" transform="translate(-1146 1659)"/>
      <ellipse id="Ellipse_1177" data-name="Ellipse 1177" cx="26.5" cy="25.5" rx="26.5" ry="25.5" transform="translate(-1277 1559)"/>
    </g>
  </g>
</svg>
