<svg xmlns="http://www.w3.org/2000/svg" width="1000" height="1000" viewBox="0 0 1000 1000">
  <g id="Group_9" data-name="Group 9" transform="translate(1603 -3744)">
    <g id="Ellipse_1180" data-name="Ellipse 1180" transform="translate(-1603 3744)" fill="none" stroke="#000" stroke-width="30">
      <circle cx="500" cy="500" r="500" stroke="none"/>
      <circle cx="500" cy="500" r="485" fill="none"/>
    </g>
    <path id="Path_17" data-name="Path 17" d="M-1358.936,4401.572s142.458,107.647,325.23,3.5c151.34-94.605,132.951-262.237,132.951-262.237s18.461-12.471,31.886-26.054a153.924,153.924,0,0,0,21.814-28.279s-17.261,6.737-32.524,11.132a258.362,258.362,0,0,1-28.529,6.449s18.553-12.864,30.506-27.488a88.329,88.329,0,0,0,16-30.821,237.214,237.214,0,0,1-33.907,16.39,187.806,187.806,0,0,1-33.886,8.858s-46.1-55.841-121.841-22.183-55.979,115.91-55.979,115.91-64.921-3.743-118.859-30.6-96.9-76.824-96.9-76.824-23.143,34.966-11.662,76.824,43.036,60.276,43.036,60.276a206.8,206.8,0,0,1-22.106-3.1c-13.434-2.524-25.279-12.458-25.279-12.458s-3.631,40.289,22.747,69.6,59.62,34.949,59.62,34.949-3.755,3.467-14.969,4.113S-1301.47,4288-1301.47,4288s10.757,32.625,39.212,52.668,57.54,18.958,57.54,18.958-19.334,16.659-58.976,32.319S-1358.936,4401.572-1358.936,4401.572Z" transform="translate(0 -1)"/>
  </g>
</svg>
