<svg xmlns="http://www.w3.org/2000/svg" width="800" height="800" viewBox="0 0 800 800">
  <g id="Group_26" data-name="Group 26" transform="translate(227 -6259)">
    <g id="Ellipse_1191" data-name="Ellipse 1191" transform="translate(-227 6259)" stroke="#000" stroke-width="15">
      <circle cx="400" cy="400" r="400" stroke="none"/>
      <circle cx="400" cy="400" r="392.5" fill="none"/>
    </g>
    <path id="Subtraction_12" data-name="Subtraction 12" d="M236.5,473a236.906,236.906,0,0,1-65.027-9.052,9.505,9.505,0,0,0,1.237-2.495l67.479-207.68,75.439,205.665A235.917,235.917,0,0,1,236.5,473ZM133.915,449.655l0,0h0A236.6,236.6,0,0,1,21.349,138.166L133.915,449.653Zm223.171-9.664,38.236-117.679c9.36-24.3,27.044-71.109,40.32-111.586a199.139,199.139,0,0,0,9.644-51.778,196.717,196.717,0,0,0-.015-20.657c-.292-5.421-.813-10.756-1.548-15.858A236.722,236.722,0,0,1,357.089,439.99ZM178.06,383.5v0h0L89.53,125H116a11,11,0,1,0,0-22H82l-.076-.221-.643.221H41.255a237.636,237.636,0,0,1,83.194-74.824A235.455,235.455,0,0,1,236.5,0a238.462,238.462,0,0,1,45.307,4.335A235.054,235.054,0,0,1,362.9,36.575a238.031,238.031,0,0,1,34.163,26.282,42.653,42.653,0,0,0-4.894-.285,38.957,38.957,0,0,0-22.481,6.984,38.276,38.276,0,0,0-11.117,12.063,41.75,41.75,0,0,0-5.3,15.408,46.691,46.691,0,0,0,.744,16.878,50.265,50.265,0,0,0,7.024,16.474c1.923,3.308,7.031,12.389,12.918,25.255a322.835,322.835,0,0,1,17.659,47.977c2.812,10.164,2.686,25.574-.377,45.8-2.407,15.9-6.611,34.731-12.5,55.968L354.335,380.5,266.293,125H296a11,11,0,0,0,0-22H168a11,11,0,1,0,0,22h24.957l36.64,99.891L178.061,383.5h0Z" transform="translate(-64 6423)" fill="#fff"/>
  </g>
</svg>
